# xmcd CD database file
#
# Track frame offsets:
#	150
#	46994
#	75108
#	106849
#	148510
#	177999
#
# Disc length: 2750 seconds
#
# Revision: 3
# Processed by: cddbd v1.5.2PL0 Copyright (c) Steve Scherf et al.
# Submitted via: CDex 1.70beta2
#
DISCID=3e0abc06
DTITLE=Art Blakey and The Jazz Messengers - Jazz History 7
DYEAR=2005
DGENRE=Jazz
TTITLE0=Moanin
TTITLE1=May Ideal
TTITLE2=Free For All
TTITLE3=Angel Eyes
TTITLE4=Wheel Within AWheel
TTITLE5=Gypsy
EXTD=YEAR: 2005
EXTT0=
EXTT1=
EXTT2=
EXTT3=
EXTT4=
EXTT5=
PLAYORDER=
